<svg aria-hidden="true" style="position:absolute;width:0;height:0;overflow:hidden" xmlns="http://www.w3.org/2000/svg">
  <defs>
    <symbol id="time" viewBox="0 0 32 32">
      <path d="M12 32H1.333a1.333 1.333 0 0 1 0-2.666H12A1.333 1.333 0 0 1 12 32zM9.333 26.667h-8a1.333 1.333 0 0 1 0-2.666h8a1.333 1.333 0 0 1 0 2.666zM6.667 21.333H1.334a1.333 1.333 0 0 1 0-2.666h5.333a1.333 1.333 0 0 1 0 2.666z" />
      <path d="m17.333 31.94-.059.001a1.335 1.335 0 0 1-.063-2.668h.003c6.822-.643 12.118-6.342 12.118-13.278 0-7.364-5.97-13.333-13.333-13.333-6.938 0-12.639 5.299-13.274 12.071l-.004.053a1.333 1.333 0 1 1-2.655-.245v.005C.831 6.353 7.673-.01 16.001-.01c8.837 0 16 7.163 16 16v.009-.001.081c0 8.307-6.366 15.128-14.486 15.849l-.061.004c-.04.004-.081.005-.12.005z" />
      <path d="M16 8c-.736 0-1.333.597-1.333 1.333V16c0 .368.149.701.391.943l4 4a1.333 1.333 0 0 0 1.884-1.886l-3.609-3.609V9.333C17.333 8.597 16.736 8 16 8z" />
    </symbol>
    <symbol id="arrow_right" viewBox="0 0 32 32">
      <path d="m20.533 13.173-6.12-6.12c-.241-.24-.573-.388-.94-.388s-.699.148-.94.388a1.333 1.333 0 0 0 0 1.894l6.133 6.107a1.333 1.333 0 0 1 0 1.894l-6.133 6.107a1.333 1.333 0 0 0 .94 2.281c.367 0 .699-.148.94-.387l6.12-6.12c.723-.724 1.17-1.723 1.17-2.827s-.447-2.103-1.17-2.827z" />
    </symbol>
    <symbol id="home" viewBox="0 0 32 32">
      <path d="M17.784 1.111C17.314.686 16.687.426 16 .426s-1.314.26-1.786.687l.002-.002L0 13.906v13.867a4.267 4.267 0 0 0 4.267 4.267h23.467a4.267 4.267 0 0 0 4.267-4.267V13.906zM20 29.368h-8v-6.701a4 4 0 0 1 8 0zm9.333-1.6a1.6 1.6 0 0 1-1.6 1.6h-5.067v-6.701a6.667 6.667 0 0 0-13.334 0v6.701H4.265a1.6 1.6 0 0 1-1.6-1.6V15.092l13.333-12 13.333 12z" />
    </symbol>
    <symbol id="modal_close" viewBox="0 0 32 32">
      <path d="m26.667 7.303-1.97-1.97-7.808 7.808-7.808-7.808-1.97 1.97 7.808 7.808-7.808 7.808 1.97 1.97 7.808-7.808 7.808 7.808 1.97-1.97-7.808-7.808 7.808-7.808z" />
    </symbol>
    <symbol id="menu_close" viewBox="0 0 32 32">
      <path d="M23.733 10.304 22.229 8.8l-5.963 5.963L10.303 8.8l-1.504 1.504 5.963 5.963-5.963 5.963 1.504 1.504 5.963-5.963 5.963 5.963 1.504-1.504-5.963-5.963 5.963-5.963z" />
    </symbol>
    <symbol id="menu_open" viewBox="0 0 32 32">
      <path d="M6.4 11.733V9.6h19.2v2.133H6.4zm0 5.334h19.2v-2.133H6.4v2.133zm0 5.333h19.2v-2.133H6.4V22.4z" />
    </symbol>
    <symbol id="arrow_down" viewBox="0 0 14 9">
      <path d="m7 7.13-.7.7.7.7.7-.7-.7-.7ZM.04 1.58 6.3 7.83l1.42-1.41L1.46.17.04 1.58Zm7.67 6.25 6.25-6.25L12.54.17 6.3 6.42l1.42 1.41Z" />
    </symbol>
    <symbol id="refresh" viewBox="0 0 24 24">
      <path d="M15.5 10.83v.5h.5v-.5h-.5ZM15 8v2.83h1V8h-1Zm.5 2.33h-2.83v1h2.83v-1Zm0 .5.42-.27v-.01a1.92 1.92 0 0 0-.08-.11 6.8 6.8 0 0 0-1-1.14A4.31 4.31 0 0 0 12 8v1c.81 0 1.57.48 2.16 1.03a6.66 6.66 0 0 1 .92 1.07l.42-.27ZM12 8c-1.81 0-2.84.69-3.4 1.45a3.26 3.26 0 0 0-.6 1.51l.5.04.5.03v-.06l.06-.22c.05-.2.16-.45.34-.7C9.76 9.56 10.48 9 12 9V8ZM8.5 13.17v-.5H8v.5h.5ZM9 16v-2.83H8V16h1Zm-.5-2.33h2.83v-1H8.5v1Zm0-.5-.42.27v.01a1.83 1.83 0 0 0 .08.11 6.82 6.82 0 0 0 1 1.14c.66.61 1.65 1.3 2.84 1.3v-1c-.81 0-1.57-.48-2.16-1.03a6.66 6.66 0 0 1-.9-1.05l-.02-.02-.42.27ZM12 16c1.81 0 2.84-.69 3.4-1.45a3.26 3.26 0 0 0 .6-1.47v-.03a.36.36 0 0 0 0-.01l-.5-.04-.5-.03a.45.45 0 0 1 0 .06l-.06.22c-.05.2-.16.45-.34.7-.36.49-1.08 1.05-2.6 1.05v1Z" />
    </symbol>
  </defs>
</svg>