<svg aria-hidden="true" style="position:absolute;width:0;height:0;overflow:hidden" xmlns="http://www.w3.org/2000/svg">
  <defs>
    <symbol id="time" viewBox="0 0 32 32">
      <path d="M12 32H1.333a1.333 1.333 0 0 1 0-2.666H12A1.333 1.333 0 0 1 12 32zM9.333 26.667h-8a1.333 1.333 0 0 1 0-2.666h8a1.333 1.333 0 0 1 0 2.666zM6.667 21.333H1.334a1.333 1.333 0 0 1 0-2.666h5.333a1.333 1.333 0 0 1 0 2.666z" />
      <path d="m17.333 31.94-.059.001a1.335 1.335 0 0 1-.063-2.668h.003c6.822-.643 12.118-6.342 12.118-13.278 0-7.364-5.97-13.333-13.333-13.333-6.938 0-12.639 5.299-13.274 12.071l-.004.053a1.333 1.333 0 1 1-2.655-.245v.005C.831 6.353 7.673-.01 16.001-.01c8.837 0 16 7.163 16 16v.009-.001.081c0 8.307-6.366 15.128-14.486 15.849l-.061.004c-.04.004-.081.005-.12.005z" />
      <path d="M16 8c-.736 0-1.333.597-1.333 1.333V16c0 .368.149.701.391.943l4 4a1.333 1.333 0 0 0 1.884-1.886l-3.609-3.609V9.333C17.333 8.597 16.736 8 16 8z" />
    </symbol>
    <symbol id="arrow_right" viewBox="0 0 32 32">
      <path d="m20.533 13.173-6.12-6.12c-.241-.24-.573-.388-.94-.388s-.699.148-.94.388a1.333 1.333 0 0 0 0 1.894l6.133 6.107a1.333 1.333 0 0 1 0 1.894l-6.133 6.107a1.333 1.333 0 0 0 .94 2.281c.367 0 .699-.148.94-.387l6.12-6.12c.723-.724 1.17-1.723 1.17-2.827s-.447-2.103-1.17-2.827z" />
    </symbol>
    <symbol id="home" viewBox="0 0 32 32">
      <path d="M17.784 1.111C17.314.686 16.687.426 16 .426s-1.314.26-1.786.687l.002-.002L0 13.906v13.867a4.267 4.267 0 0 0 4.267 4.267h23.467a4.267 4.267 0 0 0 4.267-4.267V13.906zM20 29.368h-8v-6.701a4 4 0 0 1 8 0zm9.333-1.6a1.6 1.6 0 0 1-1.6 1.6h-5.067v-6.701a6.667 6.667 0 0 0-13.334 0v6.701H4.265a1.6 1.6 0 0 1-1.6-1.6V15.092l13.333-12 13.333 12z" />
    </symbol>
    <symbol id="modal_close" viewBox="0 0 32 32">
      <path d="m26.667 7.303-1.97-1.97-7.808 7.808-7.808-7.808-1.97 1.97 7.808 7.808-7.808 7.808 1.97 1.97 7.808-7.808 7.808 7.808 1.97-1.97-7.808-7.808 7.808-7.808z" />
    </symbol>
    <symbol id="menu_close" viewBox="0 0 32 32">
      <path d="M23.733 10.304 22.229 8.8l-5.963 5.963L10.303 8.8l-1.504 1.504 5.963 5.963-5.963 5.963 1.504 1.504 5.963-5.963 5.963 5.963 1.504-1.504-5.963-5.963 5.963-5.963z" />
    </symbol>
    <symbol id="menu_open" viewBox="0 0 32 32">
      <path d="M6.4 11.733V9.6h19.2v2.133H6.4zm0 5.334h19.2v-2.133H6.4v2.133zm0 5.333h19.2v-2.133H6.4V22.4z" />
    </symbol>
    <symbol id="arrow_down" viewBox="0 0 14 9">
      <path d="m7 7.13-.7.7.7.7.7-.7-.7-.7ZM.04 1.58 6.3 7.83l1.42-1.41L1.46.17.04 1.58Zm7.67 6.25 6.25-6.25L12.54.17 6.3 6.42l1.42 1.41Z" />
    </symbol>
    <symbol id="refresh" viewBox="0 0 24 24">
      <path d="M15.5 10.83v.5h.5v-.5h-.5ZM15 8v2.83h1V8h-1Zm.5 2.33h-2.83v1h2.83v-1Zm0 .5.42-.27v-.01a1.92 1.92 0 0 0-.08-.11 6.8 6.8 0 0 0-1-1.14A4.31 4.31 0 0 0 12 8v1c.81 0 1.57.48 2.16 1.03a6.66 6.66 0 0 1 .92 1.07l.42-.27ZM12 8c-1.81 0-2.84.69-3.4 1.45a3.26 3.26 0 0 0-.6 1.51l.5.04.5.03v-.06l.06-.22c.05-.2.16-.45.34-.7C9.76 9.56 10.48 9 12 9V8ZM8.5 13.17v-.5H8v.5h.5ZM9 16v-2.83H8V16h1Zm-.5-2.33h2.83v-1H8.5v1Zm0-.5-.42.27v.01a1.83 1.83 0 0 0 .08.11 6.82 6.82 0 0 0 1 1.14c.66.61 1.65 1.3 2.84 1.3v-1c-.81 0-1.57-.48-2.16-1.03a6.66 6.66 0 0 1-.9-1.05l-.02-.02-.42.27ZM12 16c1.81 0 2.84-.69 3.4-1.45a3.26 3.26 0 0 0 .6-1.47v-.03a.36.36 0 0 0 0-.01l-.5-.04-.5-.03a.45.45 0 0 1 0 .06l-.06.22c-.05.2-.16.45-.34.7-.36.49-1.08 1.05-2.6 1.05v1Z" />
    </symbol>
    <symbol id="check" viewBox="0 0 32 32">
      <path d="m7.914 16.504-.138-.132-.138.13L5.71 18.33l.152.146 7.13 6.8.138-.132 15.16-14.462-.152-.144-1.902-1.814-.138.132-13.106 12.492-5.078-4.844z" />
    </symbol>
    <symbol id="profile" viewBox="0 0 32 32">
      <path d="M26.48 25.82c.59-.13.94-.74.67-1.28a10 10 0 0 0-3.84-3.94A14.36 14.36 0 0 0 16 18.67c-2.64 0-5.2.67-7.3 1.93a10 10 0 0 0-3.85 3.94c-.27.54.08 1.15.67 1.28l2.32.48a40 40 0 0 0 16.32 0l2.32-.48Z"/>
      <circle cx="16" cy="10.67" r="6.67"/>
    </symbol>
    <symbol id="logo" viewBox="0 0 50 50">
      <path d="M43.82 1s-3.7.06-8.11 1.19c-4.42 1.13-9.67 3.34-12.75 7.85a1 1 0 0 0-.04.07l-5.03 8.96a22.8 22.8 0 0 0-1.64-.07c-3.67-.01-8.84.88-13.04 6.4A1 1 0 0 0 4 27h1.75c2.32 0 4.8.38 6.91 1.4l-.27.48a3 3 0 0 0 .97 3.98l1.27.84c-.36.38-.7.8-1 1.26a18.07 18.07 0 0 0-2.47 6.94 11.5 11.5 0 0 0-.03 3.66c.21 1.13.68 2.2 1.63 2.85.95.65 2.11.7 3.22.46 1.11-.24 2.24-.75 3.33-1.4a17.74 17.74 0 0 0 5.38-4.96c.33-.51.6-1.05.82-1.59l.87.57c1.17.78 2.7.64 3.72-.27 2.22 2.43 3.28 5.3 3.96 7.13a1 1 0 0 0 1.74.26 14.88 14.88 0 0 0 1.52-16.15l6.78-8.28a1 1 0 0 0 .05-.07c2.2-3.23 2.87-7.07 2.85-10.62-.03-6.32-2.24-11.86-2.24-11.86a1 1 0 0 0-.94-.63zm-.7 2.05c.33.92 1.85 5.2 1.88 10.46.02 3.28-.6 6.69-2.5 9.46L28.9 39.62c-.34.4-.95.5-1.4.2L14.45 31.2a.96.96 0 0 1-.33-1.33l10.5-18.71c2.64-3.86 7.4-5.95 11.57-7.02a33.3 33.3 0 0 1 6.91-1.08zM33.5 11a6.52 6.52 0 0 0-6.5 6.5c0 3.58 2.92 6.5 6.5 6.5s6.5-2.92 6.5-6.5-2.92-6.5-6.5-6.5zm0 2c2.5 0 4.5 2 4.5 4.5S36 22 33.5 22 29 20 29 17.5s2-4.5 4.5-4.5zm-17.25 8 .55.02-3.16 5.63a17.65 17.65 0 0 0-7.33-1.6c3.4-3.4 7-4.06 9.94-4.05zM35.9 34.2c.59 1.4 1.1 3 1.1 4.8 0 2.39-.6 4.48-1.9 6.71a18.73 18.73 0 0 0-3.68-6.03l4.48-5.48zm-18.95 1.04 6.29 4.17a11.8 11.8 0 0 1-3.37 2.77c-.75.4-1.5.68-2.12.78-.62.1-1.05.01-1.33-.17-.28-.2-.52-.56-.66-1.17a7 7 0 0 1-.08-2.26c.16-1.5.7-3.1 1.27-4.12zm-3.32 4.75c-.02.72.02 1.43.18 2.1.22.92.67 1.8 1.5 2.36a3.8 3.8 0 0 0 2.74.49 8.4 8.4 0 0 0 2.46-.85 17 17 0 0 1-2.23 1.66 9.3 9.3 0 0 1-2.71 1.16c-.79.17-1.33.09-1.68-.15-.35-.24-.64-.74-.79-1.56a9.81 9.81 0 0 1 .04-3.01c.1-.73.28-1.47.5-2.2z"/>
    </symbol>
  </defs>
</svg>